<?xml version="1.0" standalone="no"?>
<!DOCTYPE svg PUBLIC "-//W3C//DTD SVG 20010904//EN"
 "http://www.w3.org/TR/2001/REC-SVG-20010904/DTD/svg10.dtd">
<svg version="1.0" xmlns="http://www.w3.org/2000/svg"
 width="129.000000pt" height="180.000000pt" viewBox="0 0 129.000000 180.000000"
 preserveAspectRatio="xMidYMid meet">

<g transform="translate(0.000000,180.000000) scale(0.100000,-0.100000)"
fill="#000000" stroke="none">
<path d="M565 1696 c-16 -8 -39 -21 -50 -29 l-20 -16 20 -15 c17 -13 18 -15 3
-16 -9 0 -26 -12 -37 -26 -24 -30 -29 -19 -6 12 8 10 15 23 15 28 0 6 -11 -5
-25 -24 -13 -18 -22 -37 -19 -41 3 -5 1 -9 -5 -9 -5 0 -14 -23 -20 -50 -15
-69 -14 -72 9 -21 11 23 17 48 13 55 -3 6 -3 8 2 4 4 -4 29 12 55 36 75 70
160 82 248 37 49 -25 86 -66 111 -121 24 -53 27 -35 6 36 -18 62 -76 131 -129
155 -48 22 -128 24 -171 5z m87 -10 c39 25 140 -32 180 -100 7 -14 -1 -11 -28
11 -95 74 -177 87 -252 40 -7 -5 -19 -4 -28 4 -12 10 -12 14 -2 20 7 5 20 6
29 4 9 -3 27 -1 40 5 23 10 22 10 -6 6 l-30 -5 30 13 c20 10 34 11 42 4 7 -5
18 -6 25 -2z"/>
<path d="M695 1673 c11 -3 29 -12 40 -19 11 -8 24 -14 30 -14 5 0 -5 9 -23 20
-18 11 -40 19 -50 19 -13 -1 -13 -2 3 -6z"/>
<path d="M535 1650 c3 -5 8 -10 11 -10 2 0 4 5 4 10 0 6 -5 10 -11 10 -5 0 -7
-4 -4 -10z"/>
<path d="M629 1597 c-38 -20 -54 -62 -40 -108 18 -61 57 -74 96 -34 58 57 11
175 -56 142z"/>
<path d="M296 1355 c-26 -7 -58 -22 -70 -33 -11 -10 -28 -21 -36 -24 -9 -3
-29 -24 -45 -47 -33 -49 -44 -128 -25 -185 16 -48 92 -128 114 -120 11 4 16 2
14 -6 -3 -14 60 -38 102 -39 21 0 20 2 -10 13 -68 26 -88 41 -120 88 -87 127
-43 276 102 343 58 27 49 30 -26 10z m-66 -56 c-19 -17 -34 -35 -32 -40 1 -5
-5 -12 -13 -15 -8 -3 -12 -10 -9 -15 3 -5 -2 -6 -10 -3 -12 5 -13 11 -5 25 5
10 14 19 20 19 6 0 7 5 3 12 -4 6 -3 9 2 5 5 -3 23 6 39 19 43 34 47 29 5 -7z
m-69 -133 c-9 -16 -9 -29 -2 -50 14 -35 14 -59 1 -51 -5 3 -10 1 -10 -4 0 -6
7 -11 15 -11 8 0 15 -8 15 -17 1 -21 34 -63 50 -63 6 0 8 -4 5 -10 -4 -6 -13
-5 -25 2 -10 7 -17 14 -15 18 1 3 -3 11 -11 18 -8 7 -14 9 -14 5 -1 -17 -50
90 -50 108 0 23 18 61 34 71 7 5 4 8 -6 8 -10 0 -18 -5 -18 -12 0 -6 -3 -9 -6
-6 -3 4 -1 16 6 27 10 20 12 20 27 6 13 -13 14 -20 4 -39z"/>
<path d="M130 1120 c0 -5 5 -10 10 -10 6 0 10 5 10 10 0 6 -4 10 -10 10 -5 0
-10 -4 -10 -10z"/>
<path d="M960 1353 c39 -16 98 -65 139 -118 20 -25 19 -231 -2 -251 -5 -5 -6
4 -3 19 3 16 1 25 -5 22 -5 -4 -9 -12 -9 -19 0 -7 -14 -22 -30 -35 -17 -12
-28 -27 -24 -33 4 -6 3 -8 -3 -5 -6 4 -31 -2 -54 -14 l-44 -20 40 6 c172 28
271 194 193 325 -14 25 -38 55 -52 67 -34 29 -85 55 -95 48 -5 -3 -11 -1 -13
4 -1 5 -21 12 -43 15 l-40 6 45 -17z m103 -37 c4 4 9 -1 13 -10 3 -9 12 -16
20 -16 8 0 13 -3 13 -7 -3 -20 2 -33 13 -30 7 1 21 -16 32 -37 15 -31 17 -43
8 -57 -7 -10 -11 -31 -11 -46 l1 -28 9 30 c7 25 8 23 4 -12 -3 -24 -14 -57
-24 -73 l-18 -31 1 44 c0 25 4 44 7 42 6 -5 4 63 -4 90 -3 11 -8 33 -11 48 -4
16 -28 50 -54 75 -26 25 -38 39 -26 29 11 -9 24 -14 27 -11z m17 -351 c-7 -8
-16 -12 -21 -9 -5 3 -9 0 -9 -7 0 -7 -3 -9 -7 -5 -5 4 1 14 11 22 26 18 42 18
26 -1z"/>
<path d="M1130 1231 c5 -11 7 -28 4 -38 -5 -17 -5 -17 6 -1 8 13 8 23 0 38 -6
11 -13 20 -16 20 -2 0 0 -9 6 -19z"/>
<path d="M1145 1170 c-3 -5 -1 -10 4 -10 6 0 11 5 11 10 0 6 -2 10 -4 10 -3 0
-8 -4 -11 -10z"/>
<path d="M604 1309 c-26 -29 -26 -99 0 -128 42 -47 106 -4 106 70 0 69 -64
104 -106 58z"/>
<path d="M841 1216 c-81 -83 -231 -106 -358 -54 -35 14 -63 22 -63 17 0 -17
79 -85 120 -104 30 -13 39 -23 35 -34 -13 -34 -36 -165 -63 -358 -26 -189 -27
-201 -10 -186 32 29 88 155 106 240 l17 82 29 -55 c26 -49 97 -124 117 -124 4
0 -3 24 -16 54 -38 85 -58 175 -58 257 0 89 8 106 65 143 50 32 82 70 103 120
9 20 14 36 12 36 -2 0 -18 -15 -36 -34z"/>
<path d="M260 1193 c-54 -21 -65 -70 -24 -102 74 -58 193 21 125 83 -20 18
-77 29 -101 19z"/>
<path d="M950 1183 c-25 -13 -36 -26 -38 -44 -7 -58 103 -94 148 -49 61 61
-27 135 -110 93z"/>
<path d="M238 442 c-27 -3 -28 -6 -28 -62 0 -44 4 -59 16 -64 28 -11 54 -6 54
10 0 10 -7 14 -22 12 -15 -2 -24 3 -26 15 -3 13 3 17 22 17 31 0 35 17 4 22
-32 5 -35 28 -4 28 14 0 26 4 26 9 0 14 -11 17 -42 13z"/>
<path d="M453 443 c-16 -6 -18 -133 -3 -133 6 0 10 10 10 23 0 17 8 25 33 32
23 7 33 17 35 34 2 13 0 27 -5 31 -11 11 -56 19 -70 13z m53 -40 c-3 -8 -6
-17 -6 -19 0 -2 -9 -4 -20 -4 -22 0 -29 35 -7 43 20 7 39 -4 33 -20z"/>
<path d="M546 443 c-3 -3 -6 -30 -6 -58 0 -53 11 -73 40 -70 8 1 21 3 28 3 7
1 11 6 8 11 -3 5 -15 7 -26 4 -18 -5 -20 0 -20 50 0 52 -9 75 -24 60z"/>
<path d="M653 443 c-21 -4 -23 -10 -23 -63 0 -44 4 -59 16 -64 28 -11 54 -6
54 9 0 9 -9 15 -25 15 -16 0 -25 6 -25 15 0 9 9 15 25 15 14 0 25 5 25 10 0 6
-11 10 -25 10 -16 0 -25 6 -25 15 0 9 10 15 26 15 15 0 24 5 22 12 -5 14 -15
17 -45 11z"/>
<path d="M1053 443 c-21 -4 -23 -10 -23 -63 0 -44 4 -59 16 -64 28 -11 54 -6
54 10 0 10 -7 14 -22 12 -15 -2 -24 3 -26 15 -3 13 3 17 22 17 14 0 26 5 26
10 0 6 -11 10 -25 10 -16 0 -25 6 -25 15 0 9 10 15 26 15 15 0 24 5 22 12 -5
14 -15 17 -45 11z"/>
<path d="M1132 442 c-8 -2 -12 -26 -12 -63 0 -54 2 -59 24 -65 14 -3 30 -3 35
1 15 9 14 26 -1 24 -27 -3 -38 2 -38 16 0 9 9 15 25 15 14 0 25 5 25 10 0 6
-11 10 -25 10 -16 0 -25 6 -25 15 0 9 10 15 26 15 15 0 24 5 22 12 -4 12 -35
17 -56 10z"/>
<path d="M107 423 c-8 -32 0 -107 11 -111 7 -2 12 7 12 21 0 19 6 26 29 30 31
6 45 29 36 58 -9 26 -82 27 -88 2z m52 -2 c17 -11 7 -41 -14 -41 -9 0 -15 9
-15 25 0 27 6 30 29 16z"/>
<path d="M312 427 c-6 -6 -13 -24 -17 -39 -5 -21 -1 -33 19 -52 31 -32 60 -33
90 -3 24 25 26 66 3 95 -12 16 -81 16 -95 -1z m88 -28 c14 -26 -11 -69 -40
-69 -11 0 -27 11 -35 24 -23 34 -5 66 35 66 19 0 33 -7 40 -21z"/>
<path d="M790 430 c0 -5 9 -10 21 -10 19 0 21 -5 17 -55 -2 -39 1 -55 10 -55
8 0 12 18 12 55 0 48 2 55 20 55 11 0 20 5 20 10 0 6 -22 10 -50 10 -27 0 -50
-4 -50 -10z"/>
<path d="M907 423 c-3 -10 -5 -39 -6 -65 -2 -37 2 -48 14 -48 9 0 15 9 15 25
0 14 4 25 10 25 5 0 17 -11 26 -25 9 -14 23 -25 30 -25 12 0 11 5 -2 25 -13
20 -14 28 -4 39 6 8 10 25 8 38 -2 19 -10 24 -45 26 -33 2 -42 -1 -46 -15z
m68 -23 c0 -8 -10 -16 -22 -18 -18 -3 -23 2 -23 18 0 16 5 21 23 18 12 -2 22
-10 22 -18z"/>
<path d="M171 200 c-1 -36 3 -60 9 -60 5 0 10 13 10 29 0 26 3 28 33 26 28 -2
32 -6 29 -29 -2 -14 1 -26 7 -26 7 0 11 24 11 60 0 37 -4 60 -11 60 -7 0 -9
-10 -5 -25 6 -23 4 -25 -29 -25 -31 0 -35 3 -35 25 0 14 -4 25 -9 25 -4 0 -9
-27 -10 -60z"/>
<path d="M306 238 c-32 -45 -6 -98 48 -98 59 0 84 60 44 107 -18 22 -75 16
-92 -9z m84 -8 c19 -19 18 -40 -3 -67 -15 -20 -54 -15 -71 8 -16 23 -12 47 12
67 22 17 39 15 62 -8z"/>
<path d="M444 245 c-10 -25 4 -45 36 -52 43 -8 36 -36 -10 -43 -33 -5 -33 -6
-10 -12 25 -7 70 13 70 32 0 23 -41 46 -73 41 -4 -1 -3 8 3 20 9 15 19 20 36
16 13 -2 24 0 24 4 0 16 -70 10 -76 -6z"/>
<path d="M550 200 c0 -33 4 -60 9 -60 4 0 8 10 7 23 -1 14 4 21 13 19 16 -3
61 24 61 38 0 18 -33 40 -61 40 -29 0 -29 0 -29 -60z m64 34 c9 -22 -1 -34
-30 -34 -17 0 -24 6 -24 18 0 10 3 22 7 25 12 13 41 7 47 -9z"/>
<path d="M661 203 c0 -35 2 -63 7 -63 4 0 6 21 4 48 -5 75 -10 82 -11 15z"/>
<path d="M698 253 c6 -2 18 -2 25 0 6 3 1 5 -13 5 -14 0 -19 -2 -12 -5z"/>
<path d="M736 244 c-10 -26 -7 -104 4 -104 6 0 10 24 10 54 0 49 2 55 23 59
20 4 19 4 -4 6 -16 0 -29 -5 -33 -15z"/>
<path d="M843 229 c-7 -18 -10 -36 -7 -40 3 -5 1 -9 -4 -9 -5 0 -12 -9 -15
-20 -6 -23 8 -27 17 -5 3 8 18 16 33 16 24 2 25 2 6 6 -24 5 -30 27 -14 52 6
10 13 5 25 -19 9 -18 16 -41 16 -51 0 -10 5 -21 10 -24 15 -9 12 7 -11 69 -12
31 -27 56 -33 56 -6 0 -17 -14 -23 -31z"/>
<path d="M950 200 l0 -60 38 1 c36 1 36 2 7 8 -29 6 -30 8 -30 59 0 28 -3 52
-7 52 -5 0 -8 -27 -8 -60z"/>
<path d="M1047 253 c-18 -18 -5 -45 29 -59 43 -18 40 -37 -7 -44 -27 -4 -30
-7 -14 -11 64 -18 88 44 27 70 -40 18 -36 37 7 35 17 -1 28 2 25 7 -6 10 -57
12 -67 2z"/>
</g>
</svg>
